<?xml version="1.0" encoding="utf-8"?>
<!-- Generator: Adobe Illustrator 28.1.0, SVG Export Plug-In . SVG Version: 6.00 Build 0)  -->
<svg version="1.1" id="Layer_1" xmlns="http://www.w3.org/2000/svg" xmlns:xlink="http://www.w3.org/1999/xlink" x="0px" y="0px"
	 viewBox="0 0 1120.6 87.4" style="enable-background:new 0 0 1120.6 87.4;" xml:space="preserve">
<style type="text/css">
	.st0{fill:#004AAD;}
</style>
<g>
	<g>
		<g transform="translate(551.281919, 579.281895)">
			<g>
				<path class="st0" d="M-529.8-492.1c9.1,0,14.4-4.8,18.5-10.1v9h17.9v-63.1h-17.9v35.2c0,8.5-4.4,12.8-11.2,12.8
					c-6.8,0-10.8-4.4-10.8-12.8v-35.2h-17.9v40.9C-551.3-501.1-543.4-492.1-529.8-492.1z"/>
			</g>
		</g>
	</g>
	<g>
		<g transform="translate(573.081997, 579.281895)">
			<g>
				<path class="st0" d="M-499.2-493.3h17.9v-35.2c0-8.5,4.4-12.8,11.2-12.8s10.8,4.4,10.8,12.8v35.2h17.9v-40.9
					c0-14.5-7.9-23.4-21.4-23.4c-9.1,0-14.4,4.8-18.5,10.1v-9h-17.9V-493.3z"/>
			</g>
		</g>
	</g>
	<g>
		<g transform="translate(594.882075, 579.281895)">
			<g>
				<path class="st0" d="M-421.7-492.1c9.3,0,15.3-4.4,19.7-10.3v9.1h17.9v-86h-17.9v31.1c-4.2-5.1-10.1-9.4-19.7-9.4
					c-15,0-28.7,11.5-28.7,32.6v0.2C-450.5-503.7-436.5-492.1-421.7-492.1z M-417.1-507.3c-8.4,0-15.4-7-15.4-17.4v-0.2
					c0-10.6,7.1-17.4,15.4-17.4c8.4,0,15.3,7,15.3,17.4v0.2C-401.8-514.3-408.8-507.3-417.1-507.3z"/>
			</g>
		</g>
	</g>
	<g>
		<g transform="translate(618.50174, 579.281895)">
			<g>
				<path class="st0" d="M-361.9-491.9c11.4,0,19.9-4.5,25.8-11.8l-10.3-9.1c-4.9,4.6-9.3,6.5-15.3,6.5c-8,0-13.7-4.2-15.4-12.4
					h43.9c0.1-1.7,0.2-3.3,0.2-4.7c0-17.9-9.7-34.3-30.8-34.3c-18.4,0-31.2,14.8-31.2,32.9v0.2
					C-394.8-505.2-380.8-491.9-361.9-491.9z M-377.3-529.8c1.4-8.1,6.2-13.4,13.7-13.4c7.5,0,12.3,5.4,13.3,13.4H-377.3z"/>
			</g>
		</g>
	</g>
	<g>
		<g transform="translate(639.951892, 579.281895)">
			<g>
				<path class="st0" d="M-341-493.3h17.9v-23.3c0-15.1,7.3-22.3,19.2-22.3h0.9v-18.7c-10.6-0.5-16.5,5.2-20.1,13.9v-12.7H-341
					V-493.3z"/>
			</g>
		</g>
	</g>
	<g>
		<g transform="translate(665.076215, 579.281895)">
			<g>
				<path class="st0" d="M-251.8-491.9c12.6,0,19.7-4.8,25.8-11.5l-10.5-10.6c-4.4,4.1-8.5,6.7-14.5,6.7c-9.8,0-16-7.8-16-17.4v-0.2
					c0-9.3,6.4-17.2,15.3-17.2c6.4,0,10.4,2.7,14.4,7l11-11.8c-5.9-6.6-13.3-10.6-25.2-10.6c-19.3,0-33.1,14.8-33.1,32.9v0.2
					C-284.7-506.5-270.8-491.9-251.8-491.9z"/>
			</g>
		</g>
	</g>
	<g>
		<g transform="translate(685.056706, 579.281895)">
			<g>
				<path class="st0" d="M-203.4-491.9c19.7,0,34.3-14.7,34.3-32.9v-0.2c0-18.1-14.5-32.6-34-32.6c-19.7,0-34.3,14.7-34.3,32.9v0.2
					C-237.4-506.4-222.9-491.9-203.4-491.9z M-203.1-507.3c-9.9,0-16.6-8.1-16.6-17.4v-0.2c0-9.3,6.1-17.2,16.4-17.2
					c9.9,0,16.6,8.1,16.6,17.4v0.2C-186.7-515.2-192.9-507.3-203.1-507.3z"/>
			</g>
		</g>
	</g>
	<g>
		<g transform="translate(708.291461, 579.281895)">
			<g>
				<path class="st0" d="M-179.4-493.3h17.9v-35.2c0-8.5,4.4-12.8,11.2-12.8c6.8,0,10.8,4.4,10.8,12.8v35.2h17.9v-40.9
					c0-14.5-7.9-23.4-21.4-23.4c-9.1,0-14.4,4.8-18.5,10.1v-9h-17.9V-493.3z"/>
			</g>
		</g>
	</g>
	<g>
		<g transform="translate(730.091539, 579.281895)">
			<g>
				<path class="st0" d="M-105.6-492.1c13.7,0,24.2-6.4,24.2-20.4v-0.2c0-11.5-10.2-15.8-19.1-18.7c-6.8-2.4-12.8-4-12.8-7.5v-0.2
					c0-2.5,2.2-4.4,6.6-4.4c4.6,0,10.8,2.2,17.1,5.9l6.8-12.4c-6.8-4.6-15.5-7.3-23.5-7.3c-12.7,0-23.1,7.2-23.1,20v0.2
					c0,12.3,10,16.4,18.8,19c7,2.1,13.1,3.4,13.1,7.3v0.2c0,2.8-2.4,4.7-7.5,4.7c-5.9,0-13.1-2.6-19.9-7.5l-7.7,11.8
					C-124.4-495.1-114.5-492.1-105.6-492.1z"/>
			</g>
		</g>
	</g>
	<g>
		<g transform="translate(747.657579, 579.281895)">
			<g>
				<path class="st0" d="M-64.9-492.2c6,0,10.4-1.4,14.1-3.7v-14.4c-2.6,1.4-5.5,2.2-8.8,2.2c-4,0-5.8-2-5.8-6.1v-27h14.8v-15.3
					h-14.8v-16.1h-17.9v16.1h-7.5v15.3h7.5v29.9C-83.3-496.6-75.9-492.2-64.9-492.2z"/>
			</g>
		</g>
	</g>
	<g>
		<g transform="translate(762.179307, 579.281895)">
			<g>
				<path class="st0" d="M-51.9-493.3H-34v-23.3c0-15.1,7.3-22.3,19.2-22.3h0.9v-18.7c-10.6-0.5-16.5,5.2-20.1,13.9v-12.7h-17.9
					V-493.3z"/>
			</g>
		</g>
	</g>
	<g>
		<g transform="translate(776.805999, 579.281895)">
			<g>
				<path class="st0" d="M3.7-492.1c9.1,0,14.4-4.8,18.5-10.1v9h17.9v-63.1H22.2v35.2c0,8.5-4.4,12.8-11.2,12.8
					c-6.8,0-10.8-4.4-10.8-12.8v-35.2h-17.9v40.9C-17.7-501.1-9.8-492.1,3.7-492.1z"/>
			</g>
		</g>
	</g>
	<g>
		<g transform="translate(798.606077, 579.281895)">
			<g>
				<path class="st0" d="M64.1-491.9c12.6,0,19.7-4.8,25.8-11.5L79.4-514c-4.4,4.1-8.5,6.7-14.5,6.7c-9.8,0-16-7.8-16-17.4v-0.2
					c0-9.3,6.4-17.2,15.3-17.2c6.4,0,10.4,2.7,14.4,7l11-11.8c-5.9-6.6-13.3-10.6-25.2-10.6c-19.3,0-33.1,14.8-33.1,32.9v0.2
					C31.2-506.5,45.1-491.9,64.1-491.9z"/>
			</g>
		</g>
	</g>
	<g>
		<g transform="translate(818.586568, 579.281895)">
			<g>
				<path class="st0" d="M102.9-492.2c6,0,10.4-1.4,14.1-3.7v-14.4c-2.6,1.4-5.5,2.2-8.8,2.2c-4,0-5.8-2-5.8-6.1v-27h14.8v-15.3
					h-14.8v-16.1H84.5v16.1H77v15.3h7.5v29.9C84.5-496.6,91.9-492.2,102.9-492.2z"/>
			</g>
		</g>
	</g>
	<g>
		<g transform="translate(833.108273, 579.281895)">
			<g>
				<path class="st0" d="M116.3-563.4h18.8v-15.9h-18.8V-563.4z M116.8-493.3h17.9v-63.1h-17.9V-493.3z"/>
			</g>
		</g>
	</g>
	<g>
		<g transform="translate(843.675884, 579.281895)">
			<g>
				<path class="st0" d="M171.9-491.9c19.7,0,34.3-14.7,34.3-32.9v-0.2c0-18.1-14.5-32.6-34-32.6c-19.7,0-34.3,14.7-34.3,32.9v0.2
					C137.9-506.4,152.4-491.9,171.9-491.9z M172.1-507.3c-9.9,0-16.6-8.1-16.6-17.4v-0.2c0-9.3,6.1-17.2,16.4-17.2
					c9.9,0,16.6,8.1,16.6,17.4v0.2C188.5-515.2,182.4-507.3,172.1-507.3z"/>
			</g>
		</g>
	</g>
	<g>
		<g transform="translate(866.910639, 579.281895)">
			<g>
				<path class="st0" d="M195.9-493.3h17.9v-35.2c0-8.5,4.4-12.8,11.2-12.8s10.8,4.4,10.8,12.8v35.2h17.9v-40.9
					c0-14.5-7.9-23.4-21.4-23.4c-9.1,0-14.4,4.8-18.5,10.1v-9h-17.9V-493.3z"/>
			</g>
		</g>
	</g>
</g>
</svg>
